<svg xmlns="http://www.w3.org/2000/svg" width="48" height="48" viewBox="0 0 48 48">
    <defs>
        <clipPath id="mvtxa1kkna">
            <path data-name="Rectangle 31" transform="translate(156 2958)" style="fill:#fff" d="M0 0h48v48H0z"/>
        </clipPath>
    </defs>
    <g style="clip-path:url(#mvtxa1kkna)">
        <path d="M12.448 5.289v48l1.113-.675 38.372-23.325zm1.464 2.606 35.2 21.394-35.2 21.394zm2.2 3.821a.732.732 0 1 0 .732.732.734.734 0 0 0-.735-.733zm3.661 2.2a.732.732 0 1 0 .732.732.734.734 0 0 0-.735-.736zm-3.661.732a.732.732 0 1 0 .732.732.734.734 0 0 0-.735-.736zm7.322 1.464a.732.732 0 1 0 .732.732.734.734 0 0 0-.735-.735zm-7.322 1.464a.732.732 0 1 0 .732.732.734.734 0 0 0-.735-.735zm10.983.732a.732.732 0 1 0 .732.732.734.734 0 0 0-.735-.735zM16.109 20.5a.732.732 0 1 0 .732.732.734.734 0 0 0-.732-.732zm14.644 0a.732.732 0 1 0 .732.732.734.734 0 0 0-.732-.732zm3.661 2.2a.732.732 0 1 0 .732.732.734.734 0 0 0-.732-.732zm-18.305.732a.732.732 0 1 0 .732.732.734.734 0 0 0-.732-.733zM38.075 24.9a.732.732 0 1 0 .732.732.734.734 0 0 0-.732-.732zm-21.966 1.46a.732.732 0 1 0 .732.732.734.734 0 0 0-.732-.732zm25.627.732a.732.732 0 1 0 .732.732.734.734 0 0 0-.732-.732zm-25.627 2.2a.732.732 0 1 0 .732.732.734.734 0 0 0-.732-.735zm0 2.929a.732.732 0 1 0 .732.732.734.734 0 0 0-.732-.736zm0 2.929a.732.732 0 1 0 .732.732.734.734 0 0 0-.732-.736zm0 2.929a.732.732 0 1 0 .732.732.734.734 0 0 0-.732-.736zm0 2.929a.732.732 0 1 0 .732.732.734.734 0 0 0-.732-.74zm0 2.929a.732.732 0 1 0 .732.732.734.734 0 0 0-.732-.736z" transform="translate(-8.189 -5.289)" style="fill:#fff" data-name="Mask Group 24"/>
    </g>
</svg>
