<svg xmlns="http://www.w3.org/2000/svg" width="451.87" height="566.731" viewBox="0 0 451.87 566.731">
    <g data-name="Group 30">
        <path data-name="Path 60" d="M968.992 1154.873H691.824c-33.723-33.723-52.628-52.628-86.351-86.347V677.17l86.351-86.351h277.168l86.351 86.351v391.356c-33.722 33.719-52.628 52.624-86.351 86.347z" style="fill:none;stroke:#46c6c5;stroke-linecap:round;stroke-linejoin:round;stroke-width:2px" transform="translate(-604.473 -589.481)"/>
        <path data-name="Path 61" d="M909.835 1060H685.652l-69.841-69.841V673.623l69.841-69.841h224.183l69.841 69.841v316.532z" transform="translate(-571.808 -548.522)" style="fill:none;stroke:#46c6c5;stroke-linecap:round;stroke-linejoin:round;stroke-width:2px"/>
        <path data-name="Path 62" d="M821.726 918.7H676.461l-45.253-45.258V668.339l45.253-45.253h145.265l45.253 45.253v205.106z" transform="translate(-523.158 -487.527)" style="fill:none;stroke:#46c6c5;stroke-linecap:round;stroke-linejoin:round;stroke-width:2px"/>
        <path data-name="Line 10" transform="translate(87.35 1.339)" style="fill:none;stroke:#46c6c5;stroke-linecap:round;stroke-linejoin:round;stroke-width:2px" d="m0 0 65.954 134.219"/>
        <path data-name="Path 63" d="m903.4 828.371-65.951-134.218-72.632 134.218-72.632-134.218-65.953 134.218" transform="translate(-538.882 -262.978)" style="fill:none;stroke:#46c6c5;stroke-linecap:round;stroke-linejoin:round;stroke-width:2px"/>
        <path data-name="Path 64" d="m677.009 1020.654 152.3 47.869L722.264 975.4l107.048-102.554-107.048-102.553 107.048-93.124-152.3 47.869 65.954-134.219" transform="translate(-378.442 -589.48)" style="fill:none;stroke:#46c6c5;stroke-linecap:round;stroke-linejoin:round;stroke-width:2px"/>
        <path data-name="Path 65" d="m757.776 1020.654-152.3 47.869L712.521 975.4 605.473 872.846l107.048-102.553-107.048-93.124 152.3 47.869 72.632-134.219 72.631 134.219" transform="translate(-604.473 -589.48)" style="fill:none;stroke:#46c6c5;stroke-linecap:round;stroke-linejoin:round;stroke-width:2px"/>
    </g>
</svg>
