<svg xmlns="http://www.w3.org/2000/svg" width="110.15" height="138.277" viewBox="0 0 110.15 138.277">
    <g data-name="Group 30">
        <path data-name="Path 60" d="M692.864 726.419h-66.632l-20.759-20.758v-94.083l20.759-20.759h66.632l20.759 20.759v94.083z" style="fill:none;stroke:#46c6c5;stroke-linecap:round;stroke-linejoin:round;stroke-width:2px" transform="translate(-604.473 -589.481)"/>
        <path data-name="Path 61" d="M686.495 713.457H632.6l-16.79-16.79v-76.095l16.79-16.79h53.894l16.79 16.79v76.095z" style="fill:none;stroke:#46c6c5;stroke-linecap:round;stroke-linejoin:round;stroke-width:2px" transform="translate(-604.473 -589.481)"/>
        <path data-name="Path 62" d="M677.009 694.153h-34.922l-10.879-10.88v-49.308l10.879-10.879h34.922l10.879 10.879v49.308z" style="fill:none;stroke:#46c6c5;stroke-linecap:round;stroke-linejoin:round;stroke-width:2px" transform="translate(-604.473 -589.481)"/>
        <path data-name="Line 10" transform="translate(21.759 1.338)" style="fill:none;stroke:#46c6c5;stroke-linecap:round;stroke-linejoin:round;stroke-width:2px" d="m0 0 15.855 32.266"/>
        <path data-name="Path 63" d="m692.864 726.419-15.855-32.266-17.461 32.266-17.461-32.266-15.855 32.266" style="fill:none;stroke:#46c6c5;stroke-linecap:round;stroke-linejoin:round;stroke-width:2px" transform="translate(-604.473 -589.481)"/>
        <path data-name="Path 64" d="m677.009 694.153 36.614 11.508-25.735-22.387 25.735-24.654-25.735-24.654 25.735-22.387-36.614 11.508 15.855-32.267" style="fill:none;stroke:#46c6c5;stroke-linecap:round;stroke-linejoin:round;stroke-width:2px" transform="translate(-604.473 -589.481)"/>
        <path data-name="Path 65" d="m642.087 694.153-36.614 11.508 25.735-22.387-25.735-24.654 25.735-24.654-25.735-22.387 36.614 11.508 17.461-32.267 17.461 32.267" style="fill:none;stroke:#46c6c5;stroke-linecap:round;stroke-linejoin:round;stroke-width:2px" transform="translate(-604.473 -589.481)"/>
    </g>
</svg>
