<svg xmlns="http://www.w3.org/2000/svg" width="130.006" height="130.006" viewBox="0 0 130.006 130.006">
    <g data-name="Group 36">
        <g data-name="Group 35">
            <path data-name="Rectangle 24" transform="rotate(45 30.795 79.173)" style="fill:none;stroke:#46c6c5;stroke-linecap:round;stroke-linejoin:round;stroke-width:2px" d="M0 0h89.928v89.928H0z"/>
            <path data-name="Rectangle 25" transform="rotate(45 9.98 87.795)" style="fill:none;stroke:#46c6c5;stroke-linecap:round;stroke-linejoin:round;stroke-width:2px" d="M0 0h65.542v65.542H0z"/>
            <path data-name="Line 11" transform="translate(65.003 1.414)" style="fill:none;stroke:#46c6c5;stroke-linecap:round;stroke-linejoin:round;stroke-width:2px" d="M0 0v17.244"/>
            <path data-name="Line 12" transform="translate(111.348 65.003)" style="fill:none;stroke:#46c6c5;stroke-linecap:round;stroke-linejoin:round;stroke-width:2px" d="M17.244 0H0"/>
            <path data-name="Line 13" transform="translate(65.003 111.348)" style="fill:none;stroke:#46c6c5;stroke-linecap:round;stroke-linejoin:round;stroke-width:2px" d="M0 17.244V0"/>
            <path data-name="Line 14" transform="translate(1.414 65.003)" style="fill:none;stroke:#46c6c5;stroke-linecap:round;stroke-linejoin:round;stroke-width:2px" d="M0 0h17.244"/>
        </g>
        <path data-name="Line 15" transform="translate(34.416 32.002)" style="fill:none;stroke:#46c6c5;stroke-linecap:round;stroke-linejoin:round;stroke-width:2px" d="m0 0 8.754 8.489"/>
        <path data-name="Line 16" transform="translate(87.533 89.024)" style="fill:none;stroke:#46c6c5;stroke-linecap:round;stroke-linejoin:round;stroke-width:2px" d="M8.966 8.072 0 0"/>
        <path data-name="Line 17" transform="translate(87.131 32.603)" style="fill:none;stroke:#46c6c5;stroke-linecap:round;stroke-linejoin:round;stroke-width:2px" d="M9.061 0 0 8.183"/>
        <path data-name="Line 18" transform="translate(33.392 88.491)" style="fill:none;stroke:#46c6c5;stroke-linecap:round;stroke-linejoin:round;stroke-width:2px" d="M0 8.489 8.754 0"/>
    </g>
</svg>
