<svg xmlns="http://www.w3.org/2000/svg" width="118.861" height="114.345" viewBox="0 0 118.861 114.345">
    <g data-name="Group 27">
        <path data-name="Path 53" d="M117.755 355.071 86.45 329.382l-7.469-38.914 19.863-33.931 37.9-13.071 38.2 13.9 20.631 34.375-6.595 38.76-30.735 25.009z" style="fill:none;stroke:#46c6c5;stroke-linecap:round;stroke-linejoin:round;stroke-width:2px" transform="translate(-77.84 -242.456)"/>
        <path data-name="Path 54" d="m122.913 340.386-23.034-18.9-5.5-28.633L109 267.885l27.887-9.618 28.11 10.231 15.18 25.293-4.852 28.52-22.615 18.4z" style="fill:none;stroke:#46c6c5;stroke-linecap:round;stroke-linejoin:round;stroke-width:2px" transform="translate(-77.84 -242.456)"/>
        <path data-name="Line 1" transform="translate(58.903 1.01)" style="fill:none;stroke:#46c6c5;stroke-linecap:round;stroke-linejoin:round;stroke-width:2px" d="m0 0 .142 14.802"/>
        <path data-name="Line 2" transform="translate(87.155 14.915)" style="fill:none;stroke:#46c6c5;stroke-linecap:round;stroke-linejoin:round;stroke-width:2px" d="M9.952 0 0 11.128"/>
        <path data-name="Line 3" transform="translate(102.335 49.289)" style="fill:none;stroke:#46c6c5;stroke-linecap:round;stroke-linejoin:round;stroke-width:2px" d="M15.402 0 0 2.046"/>
        <path data-name="Line 4" transform="translate(97.483 79.855)" style="fill:none;stroke:#46c6c5;stroke-linecap:round;stroke-linejoin:round;stroke-width:2px" d="M13.66 8.194 0 0"/>
        <path data-name="Line 5" transform="translate(74.868 98.257)" style="fill:none;stroke:#46c6c5;stroke-linecap:round;stroke-linejoin:round;stroke-width:2px" d="M5.54 14.802 0 0"/>
        <path data-name="Line 6" transform="translate(39.915 97.93)" style="fill:none;stroke:#46c6c5;stroke-linecap:round;stroke-linejoin:round;stroke-width:2px" d="M0 14.685 5.158 0"/>
        <path data-name="Line 7" transform="translate(8.61 79.029)" style="fill:none;stroke:#46c6c5;stroke-linecap:round;stroke-linejoin:round;stroke-width:2px" d="M0 7.898 13.429 0"/>
        <path data-name="Line 8" transform="translate(1.141 48.012)" style="fill:none;stroke:#46c6c5;stroke-linecap:round;stroke-linejoin:round;stroke-width:2px" d="m0 0 15.403 2.384"/>
        <path data-name="Line 9" transform="translate(21.004 14.081)" style="fill:none;stroke:#46c6c5;stroke-linecap:round;stroke-linejoin:round;stroke-width:2px" d="m0 0 10.155 11.348"/>
    </g>
</svg>
